<svg width="8" height="10" viewBox="0 0 8 10" fill="none" xmlns="http://www.w3.org/2000/svg">
<path d="M3.99985 0C2.08637 0 0.529678 1.55692 0.529678 3.47045C0.529678 5.31238 3.67822 9.61578 3.81228 9.79801L3.9374 9.96828C3.95203 9.9883 3.97533 10 3.99985 10C4.02474 10 4.04789 9.9883 4.06267 9.96828L4.18771 9.79801C4.32185 9.61578 7.47031 5.31238 7.47031 3.47045C7.47031 1.55692 5.91337 0 3.99985 0ZM3.99985 2.22734C4.68545 2.22734 5.24295 2.78487 5.24295 3.47045C5.24295 4.15567 4.68542 4.71355 3.99985 4.71355C3.31465 4.71355 2.75674 4.15567 2.75674 3.47045C2.75674 2.78487 3.31462 2.22734 3.99985 2.22734Z" fill="#00CEC9"/>
</svg>
